{
  "accessors": [
    {
      "bufferView": 2,
      "componentType": 5126,
      "count": 5932,
      "max": [
        56.38930130004883,
        -26.683500289916992,
        1.466920018196106
      ],
      "min": [
        54.09189987182617,
        -31.408700942993164,
        0.06345870345830917
      ],
      "type": "VEC3"
    },
    {
      "bufferView": 2,
      "byteOffset": 71184,
      "componentType": 5126,
      "count": 5932,
      "max": [
        1.0,
        1.0,
        1.0
      ],
      "min": [
        -1.0,
        -1.0,
        -1.0
      ],
      "type": "VEC3"
    },
    {
      "bufferView": 1,
      "componentType": 5126,
      "count": 5932,
      "max": [
        0.9975590109825134,
        0.9984580278396606
      ],
      "min": [
        0.0004920000210404396,
        0.002440989948809147
      ],
      "type": "VEC2"
    },
    {
      "bufferView": 0,
      "componentType": 5125,
      "count": 18894,
      "type": "SCALAR"
    },
    {
      "bufferView": 2,
      "byteOffset": 142368,
      "componentType": 5126,
      "count": 95,
      "max": [
        56.183799743652344,
        -31.08880043029785,
        1.0745999813079834
      ],
      "min": [
        54.297401428222656,
        -31.202600479125977,
        0.8459969758987427
      ],
      "type": "VEC3"
    },
    {
      "bufferView": 2,
      "byteOffset": 143508,
      "componentType": 5126,
      "count": 95,
      "max": [
        0.7261900901794434,
        -0.5572271347045898,
        0.33805933594703674
      ],
      "min": [
        -0.7261900901794434,
        -0.9977446794509888,
        -0.6912866830825806
      ],
      "type": "VEC3"
    },
    {
      "bufferView": 1,
      "byteOffset": 47456,
      "componentType": 5126,
      "count": 95,
      "max": [
        0.9916989803314209,
        0.960906982421875
      ],
      "min": [
        0.009398999623954296,
        0.021484000608325005
      ],
      "type": "VEC2"
    },
    {
      "bufferView": 0,
      "byteOffset": 75576,
      "componentType": 5125,
      "count": 276,
      "type": "SCALAR"
    },
    {
      "bufferView": 2,
      "byteOffset": 144648,
      "componentType": 5126,
      "count": 294,
      "max": [
        56.08810043334961,
        -26.808000564575195,
        0.8343750238418579
      ],
      "min": [
        54.39310073852539,
        -27.104799270629883,
        0.6703299880027771
      ],
      "type": "VEC3"
    },
    {
      "bufferView": 2,
      "byteOffset": 148176,
      "componentType": 5126,
      "count": 294,
      "max": [
        0.9962393045425415,
        0.9771052598953247,
        0.9972217082977295
      ],
      "min": [
        -0.9962393045425415,
        0.02355637215077877,
        -0.8696805238723755
      ],
      "type": "VEC3"
    },
    {
      "bufferView": 1,
      "byteOffset": 48216,
      "componentType": 5126,
      "count": 294,
      "max": [
        0.9316409826278687,
        0.9515380263328552
      ],
      "min": [
        0.027130000293254852,
        0.051270000636577606
      ],
      "type": "VEC2"
    },
    {
      "bufferView": 0,
      "byteOffset": 76680,
      "componentType": 5125,
      "count": 948,
      "type": "SCALAR"
    },
    {
      "bufferView": 2,
      "byteOffset": 151704,
      "componentType": 5126,
      "count": 1199,
      "max": [
        56.29029846191406,
        -27.172800064086914,
        0.8955619931221008
      ],
      "min": [
        54.191001892089844,
        -30.673999786376953,
        0.008084950037300587
      ],
      "type": "VEC3"
    },
    {
      "bufferView": 2,
      "byteOffset": 166092,
      "componentType": 5126,
      "count": 1199,
      "max": [
        1.0,
        0.9771052598953247,
        0.9771052598953247
      ],
      "min": [
        -1.0,
        -0.9771052598953247,
        -0.9771052598953247
      ],
      "type": "VEC3"
    },
    {
      "bufferView": 1,
      "byteOffset": 50568,
      "componentType": 5126,
      "count": 1199,
      "max": [
        2.0,
        0.9880679845809937
      ],
      "min": [
        0.0,
        0.05029299855232239
      ],
      "type": "VEC2"
    },
    {
      "bufferView": 0,
      "byteOffset": 80472,
      "componentType": 5125,
      "count": 5040,
      "type": "SCALAR"
    },
    {
      "bufferView": 2,
      "byteOffset": 180480,
      "componentType": 5126,
      "count": 47,
      "max": [
        56.02090072631836,
        -28.278099060058594,
        1.3907400369644165
      ],
      "min": [
        54.46030044555664,
        -28.800800323486328,
        0.9462900161743164
      ],
      "type": "VEC3"
    },
    {
      "bufferView": 2,
      "byteOffset": 181044,
      "componentType": 5126,
      "count": 47,
      "max": [
        0.4166906476020813,
        0.7083760499954224,
        0.711046040058136
      ],
      "min": [
        -0.4166906476020813,
        0.5896562337875366,
        0.6760135889053345
      ],
      "type": "VEC3"
    },
    {
      "bufferView": 1,
      "byteOffset": 60160,
      "componentType": 5126,
      "count": 47,
      "max": [
        1.0,
        1.0
      ],
      "min": [
        0.0,
        0.0
      ],
      "type": "VEC2"
    },
    {
      "bufferView": 0,
      "byteOffset": 100632,
      "componentType": 5125,
      "count": 144,
      "type": "SCALAR"
    }
  ],
  "asset": {
    "extras": {
      "author": "RBLXSupercars (https://sketchfab.com/RBLXSupercars)",
      "license": "CC-BY-4.0 (http://creativecommons.org/licenses/by/4.0/)",
      "source": "https://sketchfab.com/3d-models/lightning-mcqueen-d1a161211be742998816d8d9747a9305",
      "title": "Lightning McQueen"
    },
    "generator": "Sketchfab-16.15.0",
    "version": "2.0"
  },
  "bufferViews": [
    {
      "buffer": 0,
      "byteLength": 101208,
      "name": "floatBufferViews",
      "target": 34963
    },
    {
      "buffer": 0,
      "byteLength": 60536,
      "byteOffset": 101208,
      "byteStride": 8,
      "name": "floatBufferViews",
      "target": 34962
    },
    {
      "buffer": 0,
      "byteLength": 181608,
      "byteOffset": 161744,
      "byteStride": 12,
      "name": "floatBufferViews",
      "target": 34962
    }
  ],
  "buffers": [
    {
      "byteLength": 343352,
      "uri": "scene.bin"
    }
  ],
  "extensionsUsed": [
    "KHR_materials_emissive_strength"
  ],
  "images": [
    {
      "uri": "textures/Object341Mtl_baseColor.png"
    },
    {
      "uri": "textures/Object3521Mtl_baseColor.png"
    },
    {
      "uri": "textures/Object361Mtl_baseColor.png"
    },
    {
      "uri": "textures/Object3721Mtl_baseColor.png"
    },
    {
      "uri": "textures/Object381Mtl_baseColor.png"
    }
  ],
  "materials": [
    {
      "doubleSided": true,
      "emissiveTexture": {
        "index": 0
      },
      "name": "Object341Mtl",
      "pbrMetallicRoughness": {
        "baseColorTexture": {
          "index": 0
        },
        "metallicFactor": 0.0,
        "roughnessFactor": 0.0
      }
    },
    {
      "doubleSided": true,
      "emissiveFactor": [
        1.0,
        1.0,
        1.0
      ],
      "emissiveTexture": {
        "index": 1
      },
      "extensions": {
        "KHR_materials_emissive_strength": {
          "emissiveStrength": 10.0
        }
      },
      "name": "Object3521Mtl",
      "pbrMetallicRoughness": {
        "baseColorTexture": {
          "index": 1
        },
        "metallicFactor": 0.0
      }
    },
    {
      "doubleSided": true,
      "emissiveFactor": [
        1.0,
        1.0,
        1.0
      ],
      "emissiveTexture": {
        "index": 2
      },
      "extensions": {
        "KHR_materials_emissive_strength": {
          "emissiveStrength": 10.0
        }
      },
      "name": "Object361Mtl",
      "pbrMetallicRoughness": {
        "baseColorTexture": {
          "index": 2
        },
        "metallicFactor": 0.0
      }
    },
    {
      "doubleSided": true,
      "emissiveTexture": {
        "index": 3
      },
      "name": "Object3721Mtl",
      "pbrMetallicRoughness": {
        "baseColorTexture": {
          "index": 3
        },
        "metallicFactor": 0.0,
        "roughnessFactor": 0.3798095238095238
      }
    },
    {
      "doubleSided": true,
      "emissiveTexture": {
        "index": 4
      },
      "name": "Object381Mtl",
      "pbrMetallicRoughness": {
        "baseColorTexture": {
          "index": 4
        },
        "metallicFactor": 0.0,
        "roughnessFactor": 0.0
      }
    }
  ],
  "meshes": [
    {
      "name": "Object_0",
      "primitives": [
        {
          "attributes": {
            "NORMAL": 1,
            "POSITION": 0,
            "TEXCOORD_0": 2
          },
          "indices": 3,
          "material": 0,
          "mode": 4
        }
      ]
    },
    {
      "name": "Object_1",
      "primitives": [
        {
          "attributes": {
            "NORMAL": 5,
            "POSITION": 4,
            "TEXCOORD_0": 6
          },
          "indices": 7,
          "material": 1,
          "mode": 4
        }
      ]
    },
    {
      "name": "Object_2",
      "primitives": [
        {
          "attributes": {
            "NORMAL": 9,
            "POSITION": 8,
            "TEXCOORD_0": 10
          },
          "indices": 11,
          "material": 2,
          "mode": 4
        }
      ]
    },
    {
      "name": "Object_3",
      "primitives": [
        {
          "attributes": {
            "NORMAL": 13,
            "POSITION": 12,
            "TEXCOORD_0": 14
          },
          "indices": 15,
          "material": 3,
          "mode": 4
        }
      ]
    },
    {
      "name": "Object_4",
      "primitives": [
        {
          "attributes": {
            "NORMAL": 17,
            "POSITION": 16,
            "TEXCOORD_0": 18
          },
          "indices": 19,
          "material": 4,
          "mode": 4
        }
      ]
    }
  ],
  "nodes": [
    {
      "children": [
        1
      ],
      "matrix": [
        1.0,
        0.0,
        0.0,
        0.0,
        0.0,
        2.220446049250313e-16,
        -1.0,
        0.0,
        0.0,
        1.0,
        2.220446049250313e-16,
        0.0,
        0.0,
        0.0,
        0.0,
        1.0
      ],
      "name": "Sketchfab_model"
    },
    {
      "children": [
        2,
        3,
        4,
        5,
        6
      ],
      "name": "Lightning McQueen.obj.cleaner.materialmerger.gles"
    },
    {
      "mesh": 0,
      "name": "Object_2"
    },
    {
      "mesh": 1,
      "name": "Object_3"
    },
    {
      "mesh": 2,
      "name": "Object_4"
    },
    {
      "mesh": 3,
      "name": "Object_5"
    },
    {
      "mesh": 4,
      "name": "Object_6"
    }
  ],
  "samplers": [
    {
      "magFilter": 9729,
      "minFilter": 9987,
      "wrapS": 10497,
      "wrapT": 10497
    }
  ],
  "scene": 0,
  "scenes": [
    {
      "name": "Sketchfab_Scene",
      "nodes": [
        0
      ]
    }
  ],
  "textures": [
    {
      "sampler": 0,
      "source": 0
    },
    {
      "sampler": 0,
      "source": 1
    },
    {
      "sampler": 0,
      "source": 2
    },
    {
      "sampler": 0,
      "source": 3
    },
    {
      "sampler": 0,
      "source": 4
    }
  ]
}
